<svg xmlns="http://www.w3.org/2000/svg" xmlns:xlink="http://www.w3.org/1999/xlink" viewBox="6679 1070 82 69">
  <defs>
    <style>
      .cls-1 {
        fill: url(#linear-gradient);
      }
    </style>
    <linearGradient id="linear-gradient" x1="0.5" x2="0.5" y2="1" gradientUnits="objectBoundingBox">
      <stop offset="0" stop-color="#4082f9"/>
      <stop offset="1" stop-color="#1e67f0"/>
    </linearGradient>
  </defs>
  <g id="flaticon1521641627-svg" transform="translate(6679 1070)">
    <path id="Shape" class="cls-1" d="M22.855,27.789H10.1L2.478,14.1,9.313,1.848a1.27,1.27,0,0,0-.4-1.676A1.105,1.105,0,0,0,7.345.6L.161,13.476a1.293,1.293,0,0,0,0,1.25L7.433,27.789H5.947A1.186,1.186,0,0,0,4.8,29.012v9.766A1.186,1.186,0,0,0,5.947,40H9.709a1.225,1.225,0,0,0,0-2.445H7.092V30.234H9.423l.024,0H22.855A1.186,1.186,0,0,0,24,29.013v0A1.186,1.186,0,0,0,22.855,27.789Z" transform="translate(20 28)"/>
    <path id="Shape-2" data-name="Shape" class="cls-1" d="M56.678,69H33.95a1.2,1.2,0,1,1,0-2.394H55.475V59.439H47.752a1.153,1.153,0,0,1-.825-.34,1.362,1.362,0,0,1-.371-.98,1.2,1.2,0,0,1,1.2-1.075H52.32l8-13.4-18.185-30.4V35.405a4.81,4.81,0,1,1-2.4,0V13.247L31.2,27.5a1.211,1.211,0,0,1-1.035.585,1.23,1.23,0,0,1-.614-.168,1.193,1.193,0,0,1-.418-1.641L38.911,9.938H37.143a1.2,1.2,0,0,1-1.2-1.2V6.594A34.694,34.694,0,0,0,6.154,39.721H8.783a1.2,1.2,0,0,1,1.2,1.2v7.544a1.2,1.2,0,0,1-1.2,1.2H1.2a1.2,1.2,0,0,1-1.2-1.2V40.918a1.2,1.2,0,0,1,1.2-1.2H3.748a36.843,36.843,0,0,1,9.609-23.705A37.227,37.227,0,0,1,27.239,6.435H9.806A4.994,4.994,0,0,1,0,5.126,4.993,4.993,0,0,1,9.86,4.042h26.08V1.2a1.2,1.2,0,0,1,1.2-1.2h7.581a1.2,1.2,0,0,1,1.2,1.2V4.042h26.08a4.988,4.988,0,1,1,4.87,6.052,5,5,0,0,1-4.814-3.659H54.627A37.227,37.227,0,0,1,68.51,16.016a36.843,36.843,0,0,1,9.609,23.705H80.8a1.2,1.2,0,0,1,1.2,1.2v7.544a1.2,1.2,0,0,1-1.2,1.2H73.217a1.2,1.2,0,0,1-1.2-1.2V40.918a1.2,1.2,0,0,1,1.2-1.2h2.5A34.7,34.7,0,0,0,45.926,6.594V8.741a1.2,1.2,0,0,1-1.2,1.2H42.955l19.8,33.095a1.19,1.19,0,0,1,0,1.223l-7.636,12.79h1.561a1.2,1.2,0,0,1,1.2,1.2V67.8A1.2,1.2,0,0,1,56.678,69ZM74.419,42.114v5.151H79.6V42.114Zm-72.014,0v5.151H7.581V42.114Zm38.529-4.467a2.393,2.393,0,1,0,2.4,2.393A2.4,2.4,0,0,0,40.934,37.647ZM76.876,2.553a2.574,2.574,0,1,0,2.586,2.573A2.584,2.584,0,0,0,76.876,2.553Zm-71.885,0A2.574,2.574,0,1,0,7.577,5.126,2.583,2.583,0,0,0,4.991,2.553Zm33.354-.159v5.15h5.176V2.394Z"/>
  </g>
</svg>
