<svg xmlns="http://www.w3.org/2000/svg" xmlns:xlink="http://www.w3.org/1999/xlink" viewBox="6319 1070 71 69">
  <defs>
    <style>
      .cls-1 {
        fill: url(#linear-gradient);
      }
    </style>
    <linearGradient id="linear-gradient" x1="0.5" x2="0.5" y2="1" gradientUnits="objectBoundingBox">
      <stop offset="0" stop-color="#4082f9"/>
      <stop offset="1" stop-color="#1e67f0"/>
    </linearGradient>
  </defs>
  <g id="flaticon1521559238-svg" transform="translate(6319 1070)">
    <path id="Shape" class="cls-1" d="M52.141,69H18.859V66.775h2.219V63.436a1.113,1.113,0,0,1,1.11-1.113h2.418l1.775-8.9H1.11A1.113,1.113,0,0,1,0,52.306V3.339A3.337,3.337,0,0,1,3.328,0H67.672A3.337,3.337,0,0,1,71,3.339V52.306a1.113,1.113,0,0,1-1.11,1.113H44.618l1.775,8.9h2.42a1.113,1.113,0,0,1,1.11,1.113v3.339h2.218V69ZM23.3,64.548v2.227H47.7V64.548H23.3ZM28.642,53.42l-1.773,8.9H44.131l-1.775-8.9ZM2.218,41.178V51.194H68.782V41.178H2.218ZM6.656,5.565H64.344a1.112,1.112,0,0,1,1.11,1.112V38.952h3.328V3.339a1.113,1.113,0,0,0-1.11-1.113H3.328a1.113,1.113,0,0,0-1.11,1.113V38.952H5.547V6.677A1.112,1.112,0,0,1,6.656,5.565Zm37.719,4.451H53.25a1.112,1.112,0,0,1,1.109,1.113V38.952h8.875V7.79H7.765V38.952h8.876V17.807a1.058,1.058,0,0,1,.089-.438l3.328-7.79A1.11,1.11,0,0,1,21.079,8.9a1.129,1.129,0,0,1,.437.09,1.1,1.1,0,0,1,.582.584l3.328,7.79a1.146,1.146,0,0,1,.09.438v3.339H23.3V18.92H22.188V38.952H23.3v-8.9h2.219v8.9h4.437V33.387c0-4.557-5.5-5.54-5.732-5.58a1.115,1.115,0,0,1-.907-1.284,1.1,1.1,0,0,1,.142-.385L33.439,9.444a1.151,1.151,0,0,1,1.9,0l9.985,16.694a1.113,1.113,0,0,1-.769,1.67c-.234.04-5.729,1.044-5.729,5.58v5.565h4.438v-8.9h2.218v8.9h6.656V34.5H47.7V32.274h4.438V26.709H47.7V24.484h4.438V18.92H47.7V16.693h4.438V12.242H45.484v8.9H43.266V11.129A1.113,1.113,0,0,1,44.375,10.016Zm-12.2,27.823v1.113h4.437V37.839ZM18.859,18.92V38.952h1.109V18.92ZM32.172,34.5v1.113h4.437V34.5Zm1.109-20.465L26.122,26c1.592.539,5.361,2.232,5.969,6.271h4.6c.608-4.055,4.377-5.737,5.969-6.271L35.5,14.035v9.337H33.281Zm-12.2-1.2L19.43,16.693h3.3Z"/>
    <path id="Shape-2" data-name="Shape" class="cls-1" d="M3.5,7A3.5,3.5,0,1,1,7,3.5,3.5,3.5,0,0,1,3.5,7Zm0-4.667A1.166,1.166,0,1,0,4.667,3.5,1.168,1.168,0,0,0,3.5,2.334Z" transform="translate(32 42)"/>
  </g>
</svg>
