<svg xmlns="http://www.w3.org/2000/svg" xmlns:xlink="http://www.w3.org/1999/xlink" viewBox="7039 1070 71 69">
  <defs>
    <style>
      .cls-1 {
        fill: url(#linear-gradient);
      }
    </style>
    <linearGradient id="linear-gradient" x1="0.5" x2="0.5" y2="1" gradientUnits="objectBoundingBox">
      <stop offset="0" stop-color="#4082f9"/>
      <stop offset="1" stop-color="#1e67f0"/>
    </linearGradient>
  </defs>
  <g id="flaticon1521642215-svg" transform="translate(7039 1070)">
    <path id="Shape" class="cls-1" d="M46.2,69H1.184A1.169,1.169,0,0,1,0,67.85V5.75A1.169,1.169,0,0,1,1.184,4.6H4.739V1.15A1.169,1.169,0,0,1,5.924,0H50.942a1.169,1.169,0,0,1,1.184,1.15v62.1a1.169,1.169,0,0,1-1.184,1.15H47.388v3.45A1.169,1.169,0,0,1,46.2,69ZM2.37,6.9V66.7H45.018V6.9ZM7.108,2.3V4.6H46.2a1.169,1.169,0,0,1,1.184,1.15V62.1h2.37V2.3Z"/>
    <path id="Shape-2" data-name="Shape" class="cls-1" d="M5.779,69a1.157,1.157,0,0,1-.963-.512l-4.621-6.9A1.141,1.141,0,0,1,0,60.95V1.15A1.154,1.154,0,0,1,1.156,0H10.4a1.154,1.154,0,0,1,1.156,1.15V4.715a5.767,5.767,0,0,1,4.622,5.635v11.5H13.866V10.35a3.458,3.458,0,0,0-2.311-3.238V60.95a1.141,1.141,0,0,1-.194.638l-4.621,6.9a1.159,1.159,0,0,1-.96.512ZM2.311,32.2v28.4l3.467,5.174,3.466-5.174V32.2Zm0-29.9V29.9H9.244V2.3Z" transform="translate(54.823)"/>
    <rect id="Rectangle-path" class="cls-1" width="23.367" height="2.62" transform="translate(11.684 10.481)"/>
    <rect id="Rectangle-path-2" data-name="Rectangle-path" class="cls-1" width="7.19" height="2.62" transform="translate(11.684 19.215)"/>
    <rect id="Rectangle-path-3" data-name="Rectangle-path" class="cls-1" width="13.481" height="2.62" transform="translate(21.57 19.215)"/>
    <rect id="Rectangle-path-4" data-name="Rectangle-path" class="cls-1" width="8.987" height="2.62" transform="translate(7.19 24.456)"/>
    <rect id="Rectangle-path-5" data-name="Rectangle-path" class="cls-1" width="11.684" height="2.62" transform="translate(18.873 24.456)"/>
    <rect id="Rectangle-path-6" data-name="Rectangle-path" class="cls-1" width="33.253" height="2.62" transform="translate(7.19 28.823)"/>
    <rect id="Rectangle-path-7" data-name="Rectangle-path" class="cls-1" width="7.19" height="2.62" transform="translate(7.19 33.19)"/>
    <rect id="Rectangle-path-8" data-name="Rectangle-path" class="cls-1" width="23.367" height="2.62" transform="translate(16.177 33.19)"/>
    <rect id="Rectangle-path-9" data-name="Rectangle-path" class="cls-1" width="33.253" height="2.62" transform="translate(7.19 37.557)"/>
    <rect id="Rectangle-path-10" data-name="Rectangle-path" class="cls-1" width="3.595" height="2.62" transform="translate(36.848 19.215)"/>
    <rect id="Rectangle-path-11" data-name="Rectangle-path" class="cls-1" width="7.19" height="2.62" transform="translate(33.253 24.456)"/>
    <rect id="Rectangle-path-12" data-name="Rectangle-path" class="cls-1" width="14.38" height="2.62" transform="translate(26.063 62.013)"/>
    <rect id="Rectangle-path-13" data-name="Rectangle-path" class="cls-1" width="18.873" height="2.62" transform="translate(11.684 42.797)"/>
    <rect id="Rectangle-path-14" data-name="Rectangle-path" class="cls-1" width="33.253" height="2.62" transform="translate(7.19 47.165)"/>
    <rect id="Rectangle-path-15" data-name="Rectangle-path" class="cls-1" width="7.19" height="2.62" transform="translate(7.19 51.532)"/>
    <rect id="Rectangle-path-16" data-name="Rectangle-path" class="cls-1" width="23.367" height="2.62" transform="translate(16.177 51.532)"/>
    <rect id="Rectangle-path-17" data-name="Rectangle-path" class="cls-1" width="7.19" height="2.62" transform="translate(33.253 42.797)"/>
  </g>
</svg>
