<svg xmlns="http://www.w3.org/2000/svg" viewBox="5959 1070 79 79">
  <defs>
    <style>
      .cls-1 {
        fill: #fff;
      }
    </style>
  </defs>
  <g id="flaticon1521640920-svg" transform="translate(5959 1070)">
    <path id="Shape" class="cls-1" d="M16.714,10H1.286A1.27,1.27,0,0,1,0,8.75,8.888,8.888,0,0,1,9,0a8.888,8.888,0,0,1,9,8.75A1.27,1.27,0,0,1,16.714,10Zm-9-7.362A6.323,6.323,0,0,0,2.7,7.5H15.3a6.325,6.325,0,0,0-5.013-4.862V5H7.714V2.638Z" transform="translate(0 69)"/>
    <path id="Shape-2" data-name="Shape" class="cls-1" d="M65.833,79h-7.9a1.318,1.318,0,0,1-1.317-1.317V75.374l-.038-.014-.042-.017-.045-.019-.012,0-.009,0c-.089-.036-.254-.1-.4-.171l-1.634,1.634a1.315,1.315,0,0,1-1.861,0l-5.585-5.585a1.316,1.316,0,0,1,0-1.862L48.622,67.7c-.081-.18-.156-.36-.229-.548H46.084a1.318,1.318,0,0,1-1.317-1.317H16.458a4.608,4.608,0,0,1,0-9.217h2.333L23.765,47.4H6.583A6.591,6.591,0,0,1,0,40.817V6.583A6.591,6.591,0,0,1,6.583,0H67.15a6.591,6.591,0,0,1,6.583,6.583V40.817a6.569,6.569,0,0,1-3.529,5.8l.025,0h.042a1.292,1.292,0,0,1,.922.376l5.585,5.585a1.317,1.317,0,0,1,0,1.861l-1.634,1.634c.057.127.11.255.156.367l.021.05.016.04.011.027.025.062h2.309A1.318,1.318,0,0,1,79,57.933v7.9a1.318,1.318,0,0,1-1.317,1.317H75.374c-.1.244-.163.4-.229.548l1.634,1.634a1.316,1.316,0,0,1,0,1.862l-5.585,5.585a1.316,1.316,0,0,1-1.862,0L67.7,75.145c-.167.073-.326.14-.548.229v2.309A1.318,1.318,0,0,1,65.833,79ZM55.8,72.238a1.326,1.326,0,0,1,.608.148,11.888,11.888,0,0,0,1.922.8,1.313,1.313,0,0,1,.92,1.256v1.921h5.267V74.445a1.317,1.317,0,0,1,.922-1.257,11.8,11.8,0,0,0,1.922-.8,1.327,1.327,0,0,1,.608-.149,1.31,1.31,0,0,1,.931.385l1.364,1.364,3.723-3.723L72.624,68.9a1.314,1.314,0,0,1-.238-1.541,11.912,11.912,0,0,0,.8-1.921,1.313,1.313,0,0,1,1.256-.921h1.921V59.25H74.445a1.317,1.317,0,0,1-1.257-.922,11.824,11.824,0,0,0-.8-1.921,1.313,1.313,0,0,1,.237-1.541L73.986,53.5l-3.723-3.723L68.9,51.143a1.316,1.316,0,0,1-1.541.237,11.824,11.824,0,0,0-1.921-.8,1.314,1.314,0,0,1-.921-1.256V47.4H59.25v1.921a1.316,1.316,0,0,1-.922,1.257,11.912,11.912,0,0,0-1.921.8,1.328,1.328,0,0,1-.61.149,1.3,1.3,0,0,1-.931-.387L53.5,49.781,49.779,53.5l1.364,1.364a1.311,1.311,0,0,1,.237,1.54,11.8,11.8,0,0,0-.8,1.922,1.314,1.314,0,0,1-1.256.92H47.4v5.267h1.921a1.316,1.316,0,0,1,1.257.922,11.888,11.888,0,0,0,.8,1.922,1.313,1.313,0,0,1-.238,1.54l-1.363,1.364L53.5,73.987l1.364-1.363A1.31,1.31,0,0,1,55.8,72.238ZM16.458,59.25a1.975,1.975,0,0,0,0,3.95H44.767V59.25H16.458ZM26.757,47.4l-4.973,9.215H48.393c.082-.206.157-.386.229-.548l-1.633-1.633a1.318,1.318,0,0,1,0-1.862L49.13,50.43,47.065,47.4Zm42.557-.4a6.511,6.511,0,0,1-2.164.4v.993c.237.094.407.165.548.229Zm-14.467.4,1.222,1.221c.189-.084.368-.159.547-.229V47.4Zm-4.6,0,.773,1.135L52.16,47.4ZM2.633,36.867v3.95a3.955,3.955,0,0,0,3.95,3.95H67.15a3.955,3.955,0,0,0,3.95-3.95v-3.95ZM6.583,2.633a3.955,3.955,0,0,0-3.95,3.95v27.65H71.1V6.583a3.955,3.955,0,0,0-3.95-3.95Z"/>
    <path id="Shape-3" data-name="Shape" class="cls-1" d="M8,16a8,8,0,1,1,8-8A8.009,8.009,0,0,1,8,16ZM8,2.667A5.333,5.333,0,1,0,13.333,8,5.339,5.339,0,0,0,8,2.667Z" transform="translate(54 54)"/>
    <path id="Shape-4" data-name="Shape" class="cls-1" d="M12,1.926,10.051,0,.4,9.537a1.35,1.35,0,0,0,0,1.926L10.051,21,12,19.074,3.327,10.5Z" transform="translate(14 9)"/>
    <path id="Shape-5" data-name="Shape" class="cls-1" d="M11.6,9.537,1.949,0,0,1.926,8.673,10.5,0,19.074,1.949,21,11.6,11.463A1.35,1.35,0,0,0,11.6,9.537Z" transform="translate(44 9)"/>
    <rect id="Rectangle-path" class="cls-1" width="27" height="3" transform="translate(28.121 28.904) rotate(-63.435)"/>
    <rect id="Rectangle-path-2" data-name="Rectangle-path" class="cls-1" width="3" height="3" transform="translate(51 27)"/>
    <rect id="Rectangle-path-3" data-name="Rectangle-path" class="cls-1" width="3" height="3" transform="translate(56 27)"/>
    <rect id="Rectangle-path-4" data-name="Rectangle-path" class="cls-1" width="3" height="3" transform="translate(62 27)"/>
  </g>
</svg>
